<svg version="1.1" id="Layer_1" xmlns="http://www.w3.org/2000/svg" xmlns:xlink="http://www.w3.org/1999/xlink" x="0px" y="0px"
	 width="100%" viewBox="0 0 1199 718" enable-background="new 0 0 1199 718" xml:space="preserve">
<path fill="#010101" opacity="1.000000" stroke="none" 
	d="
M3.000000,1.000000 
	C401.915009,1.000000 800.830017,1.000000 1200.000000,1.000000 
	C1200.000000,239.364197 1200.000000,477.728485 1199.549072,716.546631 
	C818.883911,716.997375 438.669617,716.992432 58.455353,716.998840 
	C43.632034,716.999084 28.808712,717.108337 13.567789,717.098633 
	C5.082271,716.959534 2.996292,714.824585 2.996290,706.587341 
	C2.996216,471.391571 2.998284,236.195786 3.000000,1.000000 
M686.754578,557.304688 
	C686.635132,557.488098 686.515625,557.671509 686.396179,557.854919 
	C686.710754,557.599182 687.025269,557.343384 686.567200,557.770264 
	C687.108582,560.522827 687.649963,563.275391 688.415710,567.168701 
	C686.203430,565.807495 685.312744,565.259460 684.355530,564.670410 
	C683.555542,570.934326 678.563293,578.158936 673.051208,580.940491 
	C671.905518,581.518677 670.526855,581.700439 669.230347,581.904602 
	C657.740479,583.714111 646.251160,585.530334 634.744568,587.228638 
	C632.855530,587.507446 630.829712,587.503235 628.957581,587.150208 
	C614.418213,584.408203 599.968689,581.111145 585.357483,578.851257 
	C571.390137,576.690857 557.196838,575.999268 543.221741,573.878662 
	C528.164368,571.593811 514.647705,565.141724 501.848907,556.603516 
	C506.269653,554.010986 509.821533,551.375488 509.016998,546.984558 
	C504.406403,548.386780 499.851227,550.007446 495.168671,551.062683 
	C493.626556,551.410278 491.244659,550.838135 490.108917,549.769836 
	C465.228882,526.368042 440.439941,502.868927 415.698486,479.320221 
	C396.118988,460.684601 378.769684,440.515869 371.155548,413.721802 
	C370.343536,410.864410 369.012146,408.145142 367.806610,405.412567 
	C367.033691,403.660583 366.049591,402.001801 365.160126,400.301208 
	C364.988678,400.851349 364.817230,401.401459 364.645752,401.951599 
	C362.548981,401.951599 360.050476,402.680450 358.442200,401.794067 
	C355.448456,400.144073 353.460052,393.121948 355.454926,391.171692 
	C357.088074,389.575043 360.080566,389.368835 362.925079,388.389679 
	C361.524536,378.671783 360.314117,367.920929 358.349030,357.309875 
	C356.441223,347.008179 356.675903,337.473267 362.101807,327.950470 
	C364.681030,323.423706 365.257172,317.533447 365.893158,312.160553 
	C368.496368,290.167084 370.319458,268.073914 373.275269,246.131317 
	C377.808044,212.481720 392.398651,183.191666 415.273438,158.440750 
	C430.398224,142.075485 446.963928,127.028549 463.120056,111.638634 
	C467.540283,107.428078 472.521698,103.632675 477.744934,100.471985 
	C492.949493,91.271332 508.358734,82.404617 523.775208,73.559494 
	C555.069214,55.604744 588.502686,46.045532 624.857544,48.111748 
	C627.011902,48.234188 629.194031,48.124992 631.348389,47.945465 
	C639.920288,47.231140 643.475037,43.545387 643.863037,34.866570 
	C644.016907,31.425230 643.888245,27.971264 643.888245,24.090252 
	C636.885620,26.448374 632.720886,22.310108 628.412537,18.604576 
	C623.319397,14.224036 618.033813,11.924485 611.348572,15.519000 
	C608.017517,17.309996 604.186646,18.151957 600.629639,19.545235 
	C585.363525,25.524929 569.955627,31.221914 556.066772,41.953014 
	C556.423157,39.024208 556.936584,37.093189 556.817688,35.201897 
	C556.669861,32.848896 555.999756,30.528708 555.555176,28.194347 
	C553.410095,29.190241 550.946533,29.799500 549.179688,31.254683 
	C543.918823,35.587555 539.147705,40.537590 533.730103,44.646385 
	C531.596375,46.264587 528.093994,47.306358 525.495117,46.884377 
	C508.127228,44.064270 493.085541,56.775482 488.033295,69.949623 
	C486.766632,73.252640 485.021301,74.261139 481.840729,74.014641 
	C476.363312,73.590111 470.875549,73.300575 465.395935,72.901779 
	C460.135101,72.518921 455.614044,73.972275 451.724945,77.679703 
	C434.607788,93.997185 417.302490,110.120110 400.371613,126.627632 
	C397.178253,129.741150 394.423859,133.991974 393.126648,138.226471 
	C389.993927,148.452347 384.297302,156.742828 376.663330,163.932251 
	C372.540009,167.815445 368.571533,171.888412 364.223755,175.503586 
	C344.479553,191.920776 329.709900,211.657059 324.507812,237.221115 
	C320.430298,257.258698 317.582397,277.543915 313.805725,297.647247 
	C312.909943,302.415466 313.633911,306.242249 315.882233,310.400269 
	C326.762024,330.521515 335.226135,351.557770 339.054138,374.255981 
	C340.575134,383.274658 340.573883,383.277832 331.974274,384.488434 
	C330.688354,396.839508 332.795197,408.407867 337.755920,419.944000 
	C351.451447,451.792603 364.405121,483.960052 377.715973,515.974915 
	C378.153046,517.026123 379.128540,518.312683 380.113647,518.601807 
	C386.136108,520.369568 388.847229,524.738037 390.201874,530.444458 
	C391.582306,536.259399 392.829773,542.132751 394.672241,547.806274 
	C400.775726,566.600769 416.307678,584.323425 441.991089,581.645203 
	C450.206970,580.788513 458.267120,582.334290 464.929352,588.082336 
	C474.691132,596.504639 486.164459,600.113220 498.947754,600.045837 
	C500.703888,600.036560 502.697968,600.148376 504.184479,600.945435 
	C519.404602,609.105957 534.586182,617.341492 549.673218,625.745117 
	C553.513489,627.884094 556.913879,631.212341 561.915161,625.934814 
	C561.915161,630.079773 561.915161,632.965637 561.915161,635.955261 
	C569.213257,635.056641 575.964294,634.036072 582.752258,633.423523 
	C607.047668,631.230713 631.299500,630.190857 655.189331,636.892273 
	C656.817810,637.348999 658.684387,636.926575 660.438904,636.969788 
	C666.505859,637.119141 672.797607,636.347107 678.575745,637.723267 
	C684.416809,639.114441 689.638672,642.930420 695.349426,645.115540 
	C698.273438,646.234375 701.683044,646.380432 704.846741,646.261658 
	C705.328857,646.243591 705.667358,642.398987 706.156555,639.892334 
	C707.184387,639.407898 708.611694,638.460449 710.179932,638.045532 
	C715.793213,636.560364 721.612427,635.699097 727.052673,633.757874 
	C732.470093,631.824890 735.406433,634.133789 738.456604,638.022400 
	C740.570435,640.717346 743.419250,642.835815 745.585693,644.878113 
	C747.347595,639.230225 747.450134,632.748413 750.641357,630.311768 
	C754.205078,627.590820 760.572571,628.541992 766.018433,627.857422 
	C766.018433,626.822083 766.168762,625.337463 765.991394,623.893127 
	C765.349243,618.663574 767.177979,614.658569 771.095947,611.095581 
	C775.148865,607.409973 778.528259,602.994080 782.460266,599.162415 
	C787.156555,594.586182 792.126770,590.291016 797.249329,585.627319 
	C801.115173,589.843201 804.206909,593.214905 807.664307,596.985352 
	C809.053894,587.268494 801.427307,582.410095 797.540222,575.623291 
	C805.768921,572.256287 813.313599,569.191223 821.382996,573.068970 
	C821.333191,573.182251 821.283325,573.295471 821.233459,573.408752 
	C821.381531,573.161621 821.529541,572.914429 820.970459,572.369324 
	C818.829590,569.175598 820.215027,566.652283 823.141663,565.510010 
	C825.970093,564.406128 829.216064,563.940796 832.276978,563.947510 
	C840.404907,563.965332 843.564636,561.273560 845.314453,553.371399 
	C846.060730,550.001160 847.571472,546.404541 849.791992,543.818604 
	C868.886536,521.581787 884.570923,497.208496 896.516113,470.452026 
	C900.341248,461.883789 903.845215,453.172211 907.496155,444.526245 
	C897.583923,450.293152 890.244690,458.133362 884.617126,467.510590 
	C881.914734,472.013794 878.845947,474.699921 873.545471,471.691010 
	C872.439270,474.745880 871.466064,477.433319 870.492920,480.120728 
	C870.042847,480.013550 869.592834,479.906342 869.142822,479.799133 
	C869.358154,478.047485 869.573425,476.295868 869.863403,473.937134 
	C867.488525,475.780701 865.656555,477.202454 863.825073,478.624725 
	C828.462708,506.085510 792.751892,533.067444 754.758850,556.848572 
	C751.651428,558.793579 747.681580,560.565430 744.233459,560.362305 
	C741.692810,560.212769 739.349548,556.709778 736.688660,554.511230 
	C734.813293,556.169617 732.718323,558.353333 730.278748,560.037964 
	C729.082703,560.863831 727.063416,561.318481 725.764038,560.889343 
	C724.875977,560.596069 724.436340,558.524414 724.086731,557.172668 
	C723.862671,556.306335 724.167175,555.303284 724.222778,554.528259 
	C717.749207,553.517395 711.532776,552.801208 709.853210,561.912903 
	C708.002197,559.509155 706.878662,558.050110 705.335876,556.046570 
	C704.636230,559.279358 704.125793,561.637817 703.577271,564.172302 
	C697.989807,560.668640 698.032593,566.912964 695.456299,568.440308 
	C692.733154,564.634766 690.054504,560.891357 686.754578,557.304688 
M877.484558,207.052826 
	C885.138550,215.389267 885.730835,225.138733 883.285278,235.550995 
	C882.769470,237.747238 881.714111,240.458298 882.502930,242.216202 
	C887.981506,254.425278 894.547241,266.079224 904.971436,274.800964 
	C908.684753,277.907806 911.247559,280.743317 911.013428,285.864441 
	C910.940735,287.455109 912.445496,289.731018 913.881470,290.556335 
	C914.798523,291.083374 916.921814,289.540802 918.489197,288.889801 
	C918.965393,288.691956 919.391235,288.372803 920.247986,287.869690 
	C919.018188,302.862061 915.687683,317.297699 919.401978,331.808960 
	C921.371521,310.147949 924.200562,288.693604 931.842468,268.132507 
	C931.491394,267.898285 931.140381,267.664093 930.789307,267.429901 
	C927.474182,271.102539 924.159119,274.775208 921.142456,278.117188 
	C918.724609,254.165237 916.256104,230.845169 914.074585,207.498291 
	C913.288818,199.089142 911.114746,191.582275 906.368958,184.286972 
	C891.781433,161.862793 877.992249,138.920990 863.714050,116.293205 
	C855.834045,103.805206 848.979431,90.536064 837.742493,80.470306 
	C802.834045,49.200317 763.210205,30.353851 715.072998,33.571209 
	C708.179626,34.031948 701.035095,33.110584 698.975891,40.493324 
	C692.637634,40.313244 687.064209,40.132923 681.489685,40.002556 
	C675.626892,39.865444 671.044617,42.152271 668.614441,47.620655 
	C666.103882,53.269882 667.558044,58.343315 671.687805,62.741539 
	C678.604980,70.108513 687.017883,75.962196 696.892334,76.823479 
	C714.770203,78.382851 729.921204,85.602249 744.228271,95.563889 
	C772.207764,115.045265 800.264465,134.416992 828.125183,154.066635 
	C833.025024,157.522400 837.546509,157.581772 842.569885,155.262024 
	C845.535950,153.892349 848.457275,152.425644 851.586609,150.911636 
	C851.773804,151.790131 851.946838,152.234253 851.952209,152.680405 
	C852.213562,174.389084 857.321899,193.843735 877.484558,207.052826 
M639.158997,299.178009 
	C630.430420,298.000031 621.640869,297.148773 612.994080,295.532990 
	C606.899475,294.394165 601.753967,295.139191 596.437439,298.552521 
	C589.612549,302.934265 582.354187,306.698730 575.055420,310.264099 
	C570.162048,312.654510 564.874146,314.237427 559.763367,316.181396 
	C559.878418,316.929932 559.822876,317.478058 560.043579,317.870941 
	C565.013855,326.719391 573.550232,330.284973 582.661072,332.842834 
	C583.622498,333.112762 584.982178,331.953674 586.160156,331.464813 
	C591.331909,329.318390 596.397156,325.718079 601.699219,325.326080 
	C613.588745,324.446991 625.596863,325.243561 637.555359,325.165405 
	C640.102966,325.148773 642.939392,324.887390 645.141357,323.759796 
	C657.573364,317.393463 669.897949,310.810944 682.124817,304.058929 
	C683.611328,303.238068 685.377258,300.693878 685.067505,299.422424 
	C684.692993,297.884827 682.414917,296.395416 680.643982,295.737396 
	C679.064331,295.150421 676.966736,295.392517 675.247925,295.842560 
	C667.565430,297.853973 659.936646,300.070862 652.340698,302.198883 
	C653.229248,308.893005 650.268555,313.671783 644.414062,313.881348 
	C636.920959,314.149536 629.395325,313.509155 621.883667,313.260315 
	C621.864685,312.686432 621.845703,312.112549 621.826721,311.538696 
	C623.485779,311.361511 625.144409,311.039398 626.804077,311.033661 
	C632.302795,311.014618 637.803345,311.206451 643.300354,311.125153 
	C646.684326,311.075134 648.979797,309.390900 649.411316,305.820007 
	C649.815552,302.474762 647.722534,301.002533 644.917236,300.248810 
	C643.314148,299.818054 641.652344,299.605927 639.158997,299.178009 
M527.960022,353.559204 
	C524.451233,348.147278 520.942444,342.735321 517.433594,337.323395 
	C517.090698,337.572998 516.747803,337.822601 516.404907,338.072205 
	C516.404907,347.031372 516.404907,355.990509 516.404907,364.949677 
	C516.927246,364.977295 517.449585,365.004883 517.971924,365.032501 
	C517.971924,357.908752 517.971924,350.785004 517.971924,343.661255 
	C521.380310,347.464111 523.592102,351.390594 526.252930,354.984589 
	C528.781189,358.399384 529.882263,363.159332 534.219116,365.286621 
	C534.219116,355.734955 534.219116,346.915710 534.219116,338.096497 
	C533.777527,338.102753 533.335999,338.109009 532.894409,338.115265 
	C532.894409,345.083588 532.894409,352.051880 532.894409,359.020203 
	C532.536194,359.126953 532.177979,359.233704 531.819824,359.340454 
	C530.661377,357.629974 529.502930,355.919464 527.960022,353.559204 
M620.732239,344.736877 
	C625.278442,351.689514 629.345459,358.999542 634.413391,365.562988 
	C634.699402,365.263733 634.985474,364.964508 635.271484,364.665253 
	C635.271484,355.796967 635.271484,346.928650 635.271484,338.060364 
	C634.755615,338.060577 634.239746,338.060822 633.723877,338.061035 
	C633.723877,345.036926 633.723877,352.012848 633.723877,358.988739 
	C627.513916,352.114899 623.753845,344.132507 617.539307,337.845245 
	C616.895325,347.161285 616.599487,356.066193 617.969482,364.924622 
	C619.045044,358.519043 619.015564,352.134277 619.098267,345.750977 
	C619.105225,345.210083 619.862671,344.678925 620.732239,344.736877 
M580.592224,348.941498 
	C579.153992,348.864899 577.715698,348.788300 575.678040,348.679779 
	C575.678040,344.909180 575.678040,341.435028 575.678040,337.960907 
	C575.250366,337.982544 574.822693,338.004211 574.395020,338.025879 
	C574.395020,347.014557 574.395020,356.003235 574.395020,364.991943 
	C574.846313,365.024017 575.297546,365.056122 575.748840,365.088226 
	C575.748840,360.531311 575.748840,355.974365 575.748840,351.565186 
	C580.347168,351.565186 584.079346,351.565186 588.609863,351.565186 
	C588.609863,356.283417 588.609863,360.674530 588.609863,365.065643 
	C589.046326,365.034302 589.482727,365.002930 589.919189,364.971558 
	C589.919189,355.992706 589.919189,347.013855 589.919189,338.035034 
	C589.407532,338.010468 588.895874,337.985901 588.384216,337.961365 
	C588.209351,341.551788 588.034424,345.142212 587.849426,348.941437 
	C585.501343,348.941437 583.523987,348.941437 580.592224,348.941498 
M698.772827,350.456726 
	C698.662231,346.271118 698.551575,342.085541 698.440918,337.899933 
	C697.761414,337.936157 697.081848,337.972382 696.402283,338.008606 
	C696.402283,345.020935 696.111938,352.049591 696.503906,359.039917 
	C696.767029,363.731171 700.290710,365.217133 704.641052,365.211212 
	C709.091309,365.205170 712.298401,363.365723 712.568481,358.777313 
	C712.949402,352.306610 712.730957,345.799255 712.693787,339.308014 
	C712.690918,338.801849 712.099854,338.299011 711.782166,337.794617 
	C710.510254,339.269073 710.254578,340.731812 710.237671,342.197266 
	C710.180054,347.191803 710.209778,352.187347 710.200012,357.182495 
	C710.192444,361.052734 708.285339,363.032806 704.376526,362.988434 
	C700.711487,362.946838 698.887024,361.045654 698.821106,357.418732 
	C698.784790,355.421570 698.788330,353.423706 698.772827,350.456726 
M506.692566,364.319061 
	C507.856628,362.268677 509.776123,360.306091 510.026733,358.149536 
	C510.541382,353.721100 510.298889,349.183136 510.112946,344.700836 
	C509.924622,340.160950 507.455414,337.792480 502.790833,337.711487 
	C497.364532,337.617340 494.659912,339.489929 494.143372,344.422546 
	C493.798492,347.715912 493.954376,351.065674 493.952026,354.390228 
	C493.945221,364.027283 496.239502,365.974487 506.692566,364.319061 
M677.969299,347.210510 
	C677.656250,345.612427 676.816040,342.733490 677.110779,342.612152 
	C680.494751,341.219238 684.051208,340.245239 688.939819,338.733521 
	C685.720154,338.378815 683.019836,337.301483 681.000366,338.053284 
	C678.388611,339.025482 675.342468,341.010223 674.260986,343.372772 
	C672.845764,346.464539 675.454163,348.883392 678.485046,350.199646 
	C681.219177,351.387024 684.202271,352.213104 686.598083,353.883362 
	C687.907349,354.796143 688.917847,357.186676 688.782593,358.803741 
	C688.665955,360.198547 686.966431,362.162048 685.563354,362.609436 
	C682.124512,363.705780 678.542297,363.579926 676.297729,359.990082 
	C675.746521,359.108612 675.781433,357.860596 675.546936,356.781067 
	C674.973938,357.360046 674.400879,357.938995 673.827881,358.517975 
	C674.748779,363.982849 677.208069,365.493317 684.204834,365.128845 
	C687.993225,364.931519 690.351685,363.269806 691.324890,359.480042 
	C692.343750,355.512665 690.606689,352.991577 687.316895,351.364319 
	C684.500977,349.971405 681.511780,348.928925 677.969299,347.210510 
M451.113831,340.050476 
	C449.561157,335.536621 445.671234,337.807007 443.376740,338.211670 
	C441.172516,338.600342 438.176636,341.254242 437.804230,343.322479 
	C437.451935,345.278992 439.618439,348.276672 441.482330,349.881042 
	C443.387604,351.521057 446.592468,351.603424 448.627502,353.155548 
	C450.305511,354.435394 452.445709,357.342255 451.973083,358.672516 
	C451.304810,360.553406 448.281494,362.970001 446.511627,362.785828 
	C443.354034,362.457306 440.381012,360.354614 437.329437,358.993164 
	C437.329437,359.056244 436.973206,360.449738 437.388580,360.740356 
	C439.692688,362.352417 442.058502,364.588959 444.637146,364.952698 
	C450.636841,365.798950 453.828522,363.671448 454.839111,359.447937 
	C455.831543,355.300140 453.624817,352.299835 447.961090,350.100616 
	C446.107117,349.380676 443.989014,349.005615 442.478851,347.841125 
	C441.262024,346.902802 440.101837,344.975739 440.180634,343.557526 
	C440.245544,342.388428 442.032623,340.592102 443.287933,340.367523 
	C445.650970,339.944885 448.180847,340.455200 451.113831,340.050476 
M781.830750,338.049683 
	C780.007385,337.982178 778.183777,337.852142 776.360779,337.860138 
	C772.574646,337.876801 769.895386,339.667664 769.143921,343.398743 
	C768.439392,346.896698 770.595886,348.970032 773.629211,350.233368 
	C776.072998,351.251190 778.860779,351.804871 780.880127,353.362701 
	C782.418823,354.549713 784.017883,357.184357 783.705994,358.814606 
	C783.394897,360.440979 780.576538,362.915009 779.142517,362.735809 
	C775.656860,362.300201 772.336670,360.540710 768.567017,359.175903 
	C769.064819,358.535461 768.780701,358.756683 768.708496,359.033234 
	C768.631714,359.327209 768.697632,359.693390 768.800415,359.994080 
	C770.602295,365.262878 774.898132,365.356506 779.384216,365.106750 
	C783.132202,364.898041 785.490234,363.220551 786.419434,359.385376 
	C787.390869,355.376160 785.487671,352.998108 782.323547,351.314270 
	C780.437195,350.310425 778.078064,350.065979 776.395691,348.842102 
	C774.515625,347.474365 773.160889,345.384521 771.577576,343.608948 
	C773.858765,342.385010 776.068970,340.983978 778.456909,340.026062 
	C779.384705,339.653870 780.723999,340.430817 781.853088,340.352936 
	C782.147217,340.332611 782.355469,339.067352 781.830750,338.049683 
M656.758484,362.136780 
	C657.046204,355.929199 657.937134,349.656952 657.282715,343.550323 
	C657.064453,341.513214 653.125671,339.258209 650.456482,338.282043 
	C648.018433,337.390350 644.997314,338.092957 642.215027,338.092957 
	C642.215027,347.247253 642.215027,355.979675 642.215027,366.008423 
	C647.216064,364.848328 651.731140,363.800964 656.758484,362.136780 
M793.339783,342.898315 
	C797.033386,341.586121 800.726929,340.273956 805.662598,338.520508 
	C802.366028,338.269257 799.561096,337.312347 797.366028,338.085968 
	C794.905884,338.952972 792.092041,340.975739 791.067993,343.236603 
	C789.639648,346.389954 792.117065,348.825745 795.111084,350.185913 
	C797.827148,351.419769 800.762939,352.256378 803.304138,353.768402 
	C807.060059,356.003082 806.768982,360.763397 802.786072,362.395569 
	C799.377686,363.792297 795.925964,363.737854 793.268494,360.516571 
	C792.549377,359.644989 791.829163,358.774323 790.351135,356.985260 
	C791.324341,363.881195 793.807068,365.424316 800.798523,365.143158 
	C804.641296,364.988678 807.170288,363.255585 807.975769,359.569794 
	C808.819336,355.709717 807.447571,352.671661 803.625671,351.098785 
	C801.480225,350.215820 799.021301,349.844849 797.172058,348.565887 
	C795.494385,347.405548 794.451477,345.327393 793.339783,342.898315 
M611.084717,364.663544 
	C611.620300,363.881592 612.762939,362.925232 612.596313,362.345001 
	C611.132141,357.247711 609.473389,352.204529 607.792358,347.172028 
	C606.732422,343.998901 605.536011,340.871338 604.400818,337.723358 
	C603.853882,337.710663 603.306946,337.697937 602.760010,337.685242 
	C599.838684,346.697266 596.917358,355.709290 593.996033,364.721313 
	C594.539429,364.946075 595.082886,365.170868 595.626343,365.395660 
	C596.433228,363.494812 597.582458,361.660736 597.969238,359.677917 
	C598.594604,356.471771 600.139099,355.466064 603.403931,355.491302 
	C606.661621,355.516479 608.862549,355.986115 609.364441,359.665863 
	C609.562378,361.116882 610.281982,362.496765 611.084717,364.663544 
M540.981567,351.500061 
	C540.981567,355.921936 540.981567,360.343811 540.981567,364.707397 
	C551.099121,365.503754 554.086243,364.838257 556.067261,361.499390 
	C557.879333,358.445251 557.432373,343.859711 555.270020,341.225739 
	C551.346130,336.446075 546.087219,338.308472 540.981506,338.072113 
	C540.981506,342.581085 540.981506,346.543610 540.981567,351.500061 
M482.965820,365.119110 
	C485.606140,364.845673 488.246460,364.572235 490.886810,364.298798 
	C490.835327,363.801819 490.783875,363.304840 490.732391,362.807861 
	C479.848206,363.620728 479.716522,363.495911 479.689087,352.329132 
	C479.686615,351.329987 479.683685,350.330872 479.685730,349.331726 
	C479.704559,340.179016 480.146027,339.755707 489.287018,340.015076 
	C489.459961,340.019989 489.644379,339.619568 489.820587,339.405853 
	C485.704315,336.822021 481.396606,337.134277 478.870728,340.199585 
	C476.048523,343.624481 476.202148,360.095673 479.192261,363.266205 
	C479.946960,364.066467 481.133789,364.459167 482.965820,365.119110 
M737.064087,339.300995 
	C736.306030,341.074921 735.014709,342.813477 734.894287,344.629700 
	C734.587219,349.257996 734.374146,353.979126 734.993530,358.545135 
	C735.295471,360.771027 737.135193,363.887726 739.001526,364.543091 
	C741.765259,365.513611 745.171936,364.653259 748.304932,364.572357 
	C748.266174,363.985992 748.227417,363.399628 748.188660,362.813263 
	C747.598389,362.813263 747.001953,362.757263 746.418762,362.821686 
	C738.065186,363.744598 737.056641,362.871826 737.045532,354.667297 
	C737.043274,353.006653 737.043945,351.346039 737.044067,349.685394 
	C737.044556,340.045013 737.044678,340.047607 746.601562,339.872345 
	C746.721375,339.870178 746.833069,339.428436 747.608765,337.838928 
	C743.830627,338.227081 740.792847,338.539185 737.064087,339.300995 
M463.696442,351.209778 
	C465.539612,350.961670 467.382782,350.713531 469.225922,350.465424 
	C469.171051,350.045410 469.116150,349.625366 469.061249,349.205353 
	C466.812103,349.066864 464.562927,348.928406 462.245911,348.785736 
	C462.245911,345.782349 462.245911,343.049957 462.245911,340.215302 
	C465.909119,340.032196 469.354401,339.859955 472.799683,339.687744 
	C472.776093,339.281860 472.752502,338.875946 472.728912,338.470062 
	C468.628845,338.470062 464.528809,338.470062 460.341309,338.470062 
	C460.341309,347.225708 460.341309,356.070618 460.341309,364.334473 
	C464.743561,364.334473 468.780823,364.334473 472.818085,364.334473 
	C472.793732,363.898376 472.769379,363.462280 472.745026,363.026184 
	C469.224945,363.026184 465.704865,363.026184 461.611908,363.026184 
	C462.046143,358.647858 462.413177,354.947479 463.696442,351.209778 
M751.998962,355.466675 
	C751.998962,358.569092 751.998962,361.671509 751.998962,364.435699 
	C756.632324,364.435699 760.690796,364.435699 764.749268,364.435699 
	C764.763123,364.049713 764.776917,363.663757 764.790710,363.277771 
	C761.317810,363.102356 757.844849,362.926910 754.432983,362.754578 
	C754.432983,358.754425 754.432983,355.170349 754.432983,351.615356 
	C756.888977,351.211426 759.085327,350.850189 761.281738,350.488983 
	C761.234558,350.081665 761.187317,349.674377 761.140137,349.267059 
	C758.943848,349.105072 756.747620,348.943085 754.438965,348.772827 
	C754.438965,345.784454 754.438965,343.062653 754.438965,340.213806 
	C758.130188,340.029877 761.558594,339.859039 764.987000,339.688232 
	C764.964172,339.276398 764.941345,338.864594 764.918518,338.452789 
	C760.683411,338.452789 756.448303,338.452789 752.253906,338.452789 
	C752.147949,338.727051 752.043030,338.872528 752.042480,339.018433 
	C752.021912,344.171631 752.011230,349.324860 751.998962,355.466675 
M717.956482,350.544250 
	C717.956543,352.876801 717.481873,355.340729 718.081360,357.507446 
	C718.772949,360.007202 719.889404,363.537750 721.761780,364.294769 
	C724.609863,365.446198 728.267151,364.596161 731.580750,364.596161 
	C731.556946,364.105377 731.533081,363.614594 731.509277,363.123810 
	C720.042419,362.568390 720.042419,362.568390 720.042969,350.215302 
	C720.042969,350.048706 720.042847,349.882080 720.042908,349.715485 
	C720.046021,340.290497 720.515991,339.826080 729.846313,339.938934 
	C730.014709,339.941010 730.187561,339.573334 730.364075,339.371582 
	C723.698303,335.594879 718.129822,338.401245 717.960938,345.590271 
	C717.929626,346.922455 717.956543,348.255981 717.956482,350.544250 
z"/>
<path fill="#E2E2E2" opacity="1.000000" stroke="none" 
	d="
M13.985393,717.166870 
	C28.808712,717.108337 43.632034,716.999084 58.455353,716.998840 
	C438.669617,716.992432 818.883911,716.997375 1199.549072,717.000244 
	C1199.667114,717.666687 1199.452759,718.783752 1198.977173,718.909058 
	C1197.886475,719.196350 1196.668457,719.000000 1195.502197,719.000000 
	C801.968750,719.000000 408.435272,719.000000 14.450143,718.694458 
	C13.994115,717.981567 13.989754,717.574219 13.985393,717.166870 
z"/>
<path fill="#F4F4F4" opacity="1.000000" stroke="none" 
	d="
M13.567789,717.098633 
	C13.989754,717.574219 13.994115,717.981567 13.999238,718.694458 
	C9.666667,719.000000 5.333334,719.000000 1.000000,719.000000 
	C1.000000,481.166687 0.998149,243.333359 1.041291,5.500051 
	C1.041563,3.999976 1.666667,2.500015 2.500000,1.000000 
	C2.998284,236.195786 2.996216,471.391571 2.996290,706.587341 
	C2.996292,714.824585 5.082271,716.959534 13.567789,717.098633 
z"/>
<path fill="#F0F1F5" opacity="1.000000" stroke="none" 
	d="
M821.662537,572.639832 
	C813.313599,569.191223 805.768921,572.256287 797.540222,575.623291 
	C801.427307,582.410095 809.053894,587.268494 807.664307,596.985352 
	C804.206909,593.214905 801.115173,589.843201 797.249329,585.627319 
	C792.126770,590.291016 787.156555,594.586182 782.460266,599.162415 
	C778.528259,602.994080 775.148865,607.409973 771.095947,611.095581 
	C767.177979,614.658569 765.349243,618.663574 765.991394,623.893127 
	C766.168762,625.337463 766.018433,626.822083 766.018433,627.857422 
	C760.572571,628.541992 754.205078,627.590820 750.641357,630.311768 
	C747.450134,632.748413 747.347595,639.230225 745.585693,644.878113 
	C743.419250,642.835815 740.570435,640.717346 738.456604,638.022400 
	C735.406433,634.133789 732.470093,631.824890 727.052673,633.757874 
	C721.612427,635.699097 715.793213,636.560364 710.179932,638.045532 
	C708.611694,638.460449 707.184387,639.407898 706.156555,639.892334 
	C705.667358,642.398987 705.328857,646.243591 704.846741,646.261658 
	C701.683044,646.380432 698.273438,646.234375 695.349426,645.115540 
	C689.638672,642.930420 684.416809,639.114441 678.575745,637.723267 
	C672.797607,636.347107 666.505859,637.119141 660.438904,636.969788 
	C658.684387,636.926575 656.817810,637.348999 655.189331,636.892273 
	C631.299500,630.190857 607.047668,631.230713 582.752258,633.423523 
	C575.964294,634.036072 569.213257,635.056641 561.915161,635.955261 
	C561.915161,632.965637 561.915161,630.079773 561.915161,625.934814 
	C556.913879,631.212341 553.513489,627.884094 549.673218,625.745117 
	C534.586182,617.341492 519.404602,609.105957 504.184479,600.945435 
	C502.697968,600.148376 500.703888,600.036560 498.947754,600.045837 
	C486.164459,600.113220 474.691132,596.504639 464.929352,588.082336 
	C458.267120,582.334290 450.206970,580.788513 441.991089,581.645203 
	C416.307678,584.323425 400.775726,566.600769 394.672241,547.806274 
	C392.829773,542.132751 391.582306,536.259399 390.201874,530.444458 
	C388.847229,524.738037 386.136108,520.369568 380.113647,518.601807 
	C379.128540,518.312683 378.153046,517.026123 377.715973,515.974915 
	C364.405121,483.960052 351.451447,451.792603 337.755920,419.944000 
	C332.795197,408.407867 330.688354,396.839508 331.974274,384.488434 
	C340.573883,383.277832 340.575134,383.274658 339.054138,374.255981 
	C335.226135,351.557770 326.762024,330.521515 315.882233,310.400269 
	C313.633911,306.242249 312.909943,302.415466 313.805725,297.647247 
	C317.582397,277.543915 320.430298,257.258698 324.507812,237.221115 
	C329.709900,211.657059 344.479553,191.920776 364.223755,175.503586 
	C368.571533,171.888412 372.540009,167.815445 376.663330,163.932251 
	C384.297302,156.742828 389.993927,148.452347 393.126648,138.226471 
	C394.423859,133.991974 397.178253,129.741150 400.371613,126.627632 
	C417.302490,110.120110 434.607788,93.997185 451.724945,77.679703 
	C455.614044,73.972275 460.135101,72.518921 465.395935,72.901779 
	C470.875549,73.300575 476.363312,73.590111 481.840729,74.014641 
	C485.021301,74.261139 486.766632,73.252640 488.033295,69.949623 
	C493.085541,56.775482 508.127228,44.064270 525.495117,46.884377 
	C528.093994,47.306358 531.596375,46.264587 533.730103,44.646385 
	C539.147705,40.537590 543.918823,35.587555 549.179688,31.254683 
	C550.946533,29.799500 553.410095,29.190241 555.555176,28.194347 
	C555.999756,30.528708 556.669861,32.848896 556.817688,35.201897 
	C556.936584,37.093189 556.423157,39.024208 556.066772,41.953014 
	C569.955627,31.221914 585.363525,25.524929 600.629639,19.545235 
	C604.186646,18.151957 608.017517,17.309996 611.348572,15.519000 
	C618.033813,11.924485 623.319397,14.224036 628.412537,18.604576 
	C632.720886,22.310108 636.885620,26.448374 643.888245,24.090252 
	C643.888245,27.971264 644.016907,31.425230 643.863037,34.866570 
	C643.475037,43.545387 639.920288,47.231140 631.348389,47.945465 
	C629.194031,48.124992 627.011902,48.234188 624.857544,48.111748 
	C588.502686,46.045532 555.069214,55.604744 523.775208,73.559494 
	C508.358734,82.404617 492.949493,91.271332 477.744934,100.471985 
	C472.521698,103.632675 467.540283,107.428078 463.120056,111.638634 
	C446.963928,127.028549 430.398224,142.075485 415.273438,158.440750 
	C392.398651,183.191666 377.808044,212.481720 373.275269,246.131317 
	C370.319458,268.073914 368.496368,290.167084 365.893158,312.160553 
	C365.257172,317.533447 364.681030,323.423706 362.101807,327.950470 
	C356.675903,337.473267 356.441223,347.008179 358.349030,357.309875 
	C360.314117,367.920929 361.524536,378.671783 362.925079,388.389679 
	C360.080566,389.368835 357.088074,389.575043 355.454926,391.171692 
	C353.460052,393.121948 355.448456,400.144073 358.442200,401.794067 
	C360.050476,402.680450 362.548981,401.951599 364.645752,401.951599 
	C364.817230,401.401459 364.988678,400.851349 365.160126,400.301208 
	C366.049591,402.001801 367.033691,403.660583 367.806610,405.412567 
	C369.012146,408.145142 370.343536,410.864410 371.155548,413.721802 
	C378.769684,440.515869 396.118988,460.684601 415.698486,479.320221 
	C440.439941,502.868927 465.228882,526.368042 490.108917,549.769836 
	C491.244659,550.838135 493.626556,551.410278 495.168671,551.062683 
	C499.851227,550.007446 504.406403,548.386780 509.016998,546.984558 
	C509.821533,551.375488 506.269653,554.010986 501.848907,556.603516 
	C514.647705,565.141724 528.164368,571.593811 543.221741,573.878662 
	C557.196838,575.999268 571.390137,576.690857 585.357483,578.851257 
	C599.968689,581.111145 614.418213,584.408203 628.957581,587.150208 
	C630.829712,587.503235 632.855530,587.507446 634.744568,587.228638 
	C646.251160,585.530334 657.740479,583.714111 669.230347,581.904602 
	C670.526855,581.700439 671.905518,581.518677 673.051208,580.940491 
	C678.563293,578.158936 683.555542,570.934326 684.355530,564.670410 
	C685.312744,565.259460 686.203430,565.807495 688.415710,567.168701 
	C687.649963,563.275391 687.108582,560.522827 686.932251,557.471802 
	C687.297302,557.173401 687.375854,557.147888 687.375854,557.147888 
	C690.054504,560.891357 692.733154,564.634766 695.456299,568.440308 
	C698.032593,566.912964 697.989807,560.668640 703.577271,564.172302 
	C704.125793,561.637817 704.636230,559.279358 705.335876,556.046570 
	C706.878662,558.050110 708.002197,559.509155 709.853210,561.912903 
	C711.532776,552.801208 717.749207,553.517395 724.222778,554.528259 
	C724.167175,555.303284 723.862671,556.306335 724.086731,557.172668 
	C724.436340,558.524414 724.875977,560.596069 725.764038,560.889343 
	C727.063416,561.318481 729.082703,560.863831 730.278748,560.037964 
	C732.718323,558.353333 734.813293,556.169617 736.688660,554.511230 
	C739.349548,556.709778 741.692810,560.212769 744.233459,560.362305 
	C747.681580,560.565430 751.651428,558.793579 754.758850,556.848572 
	C792.751892,533.067444 828.462708,506.085510 863.825073,478.624725 
	C865.656555,477.202454 867.488525,475.780701 869.863403,473.937134 
	C869.573425,476.295868 869.358154,478.047485 869.142822,479.799133 
	C869.592834,479.906342 870.042847,480.013550 870.492920,480.120728 
	C871.466064,477.433319 872.439270,474.745880 873.545471,471.691010 
	C878.845947,474.699921 881.914734,472.013794 884.617126,467.510590 
	C890.244690,458.133362 897.583923,450.293152 907.496155,444.526245 
	C903.845215,453.172211 900.341248,461.883789 896.516113,470.452026 
	C884.570923,497.208496 868.886536,521.581787 849.791992,543.818604 
	C847.571472,546.404541 846.060730,550.001160 845.314453,553.371399 
	C843.564636,561.273560 840.404907,563.965332 832.276978,563.947510 
	C829.216064,563.940796 825.970093,564.406128 823.141663,565.510010 
	C820.215027,566.652283 818.829590,569.175598 821.283081,572.528625 
	C821.595642,572.687927 821.662537,572.639832 821.662537,572.639832 
M367.112061,432.002472 
	C369.600494,436.954224 370.973389,438.102234 375.946228,439.033417 
	C370.098785,431.912811 370.085785,421.732941 362.280731,415.235077 
	C364.045654,421.237610 365.514526,426.233246 367.112061,432.002472 
M356.879456,418.076355 
	C355.587494,417.951691 354.295532,417.827026 353.003571,417.702362 
	C353.003540,418.858002 352.542511,420.338196 353.086487,421.110809 
	C355.019653,423.856262 357.295349,426.360565 359.441254,428.956207 
	C359.622284,428.844757 359.803314,428.733307 359.984344,428.621857 
	C359.005890,425.344055 358.027435,422.066223 356.879456,418.076355 
z"/>
<path fill="#F0F1F5" opacity="1.000000" stroke="none" 
	d="
M877.217407,206.809509 
	C857.321899,193.843735 852.213562,174.389084 851.952209,152.680405 
	C851.946838,152.234253 851.773804,151.790131 851.586609,150.911636 
	C848.457275,152.425644 845.535950,153.892349 842.569885,155.262024 
	C837.546509,157.581772 833.025024,157.522400 828.125183,154.066635 
	C800.264465,134.416992 772.207764,115.045265 744.228271,95.563889 
	C729.921204,85.602249 714.770203,78.382851 696.892334,76.823479 
	C687.017883,75.962196 678.604980,70.108513 671.687805,62.741539 
	C667.558044,58.343315 666.103882,53.269882 668.614441,47.620655 
	C671.044617,42.152271 675.626892,39.865444 681.489685,40.002556 
	C687.064209,40.132923 692.637634,40.313244 698.975891,40.493324 
	C701.035095,33.110584 708.179626,34.031948 715.072998,33.571209 
	C763.210205,30.353851 802.834045,49.200317 837.742493,80.470306 
	C848.979431,90.536064 855.834045,103.805206 863.714050,116.293205 
	C877.992249,138.920990 891.781433,161.862793 906.368958,184.286972 
	C911.114746,191.582275 913.288818,199.089142 914.074585,207.498291 
	C916.256104,230.845169 918.724609,254.165237 921.142456,278.117188 
	C924.159119,274.775208 927.474182,271.102539 930.789307,267.429901 
	C931.140381,267.664093 931.491394,267.898285 931.842468,268.132507 
	C924.200562,288.693604 921.371521,310.147949 919.401978,331.808960 
	C915.687683,317.297699 919.018188,302.862061 920.247986,287.869690 
	C919.391235,288.372803 918.965393,288.691956 918.489197,288.889801 
	C916.921814,289.540802 914.798523,291.083374 913.881470,290.556335 
	C912.445496,289.731018 910.940735,287.455109 911.013428,285.864441 
	C911.247559,280.743317 908.684753,277.907806 904.971436,274.800964 
	C894.547241,266.079224 887.981506,254.425278 882.502930,242.216202 
	C881.714111,240.458298 882.769470,237.747238 883.285278,235.550995 
	C885.730835,225.138733 885.138550,215.389267 877.217407,206.809509 
z"/>
<path fill="#DADADA" opacity="1.000000" stroke="none" 
	d="
M639.588013,299.236694 
	C641.652344,299.605927 643.314148,299.818054 644.917236,300.248810 
	C647.722534,301.002533 649.815552,302.474762 649.411316,305.820007 
	C648.979797,309.390900 646.684326,311.075134 643.300354,311.125153 
	C637.803345,311.206451 632.302795,311.014618 626.804077,311.033661 
	C625.144409,311.039398 623.485779,311.361511 621.826721,311.538696 
	C621.845703,312.112549 621.864685,312.686432 621.883667,313.260315 
	C629.395325,313.509155 636.920959,314.149536 644.414062,313.881348 
	C650.268555,313.671783 653.229248,308.893005 652.340698,302.198883 
	C659.936646,300.070862 667.565430,297.853973 675.247925,295.842560 
	C676.966736,295.392517 679.064331,295.150421 680.643982,295.737396 
	C682.414917,296.395416 684.692993,297.884827 685.067505,299.422424 
	C685.377258,300.693878 683.611328,303.238068 682.124817,304.058929 
	C669.897949,310.810944 657.573364,317.393463 645.141357,323.759796 
	C642.939392,324.887390 640.102966,325.148773 637.555359,325.165405 
	C625.596863,325.243561 613.588745,324.446991 601.699219,325.326080 
	C596.397156,325.718079 591.331909,329.318390 586.160156,331.464813 
	C584.982178,331.953674 583.622498,333.112762 582.661072,332.842834 
	C573.550232,330.284973 565.013855,326.719391 560.043579,317.870941 
	C559.822876,317.478058 559.878418,316.929932 559.763367,316.181396 
	C564.874146,314.237427 570.162048,312.654510 575.055420,310.264099 
	C582.354187,306.698730 589.612549,302.934265 596.437439,298.552521 
	C601.753967,295.139191 606.899475,294.394165 612.994080,295.532990 
	C621.640869,297.148773 630.430420,298.000031 639.588013,299.236694 
z"/>
<path fill="#DDDEE0" opacity="1.000000" stroke="none" 
	d="
M528.152222,353.884094 
	C529.502930,355.919464 530.661377,357.629974 531.819824,359.340454 
	C532.177979,359.233704 532.536194,359.126953 532.894409,359.020203 
	C532.894409,352.051880 532.894409,345.083588 532.894409,338.115265 
	C533.335999,338.109009 533.777527,338.102753 534.219116,338.096497 
	C534.219116,346.915710 534.219116,355.734955 534.219116,365.286621 
	C529.882263,363.159332 528.781189,358.399384 526.252930,354.984589 
	C523.592102,351.390594 521.380310,347.464111 517.971924,343.661255 
	C517.971924,350.785004 517.971924,357.908752 517.971924,365.032501 
	C517.449585,365.004883 516.927246,364.977295 516.404907,364.949677 
	C516.404907,355.990509 516.404907,347.031372 516.404907,338.072205 
	C516.747803,337.822601 517.090698,337.572998 517.433594,337.323395 
	C520.942444,342.735321 524.451233,348.147278 528.152222,353.884094 
z"/>
<path fill="#DDDDE1" opacity="1.000000" stroke="none" 
	d="
M620.501831,344.440063 
	C619.862671,344.678925 619.105225,345.210083 619.098267,345.750977 
	C619.015564,352.134277 619.045044,358.519043 617.969482,364.924622 
	C616.599487,356.066193 616.895325,347.161285 617.539307,337.845245 
	C623.753845,344.132507 627.513916,352.114899 633.723877,358.988739 
	C633.723877,352.012848 633.723877,345.036926 633.723877,338.061035 
	C634.239746,338.060822 634.755615,338.060577 635.271484,338.060364 
	C635.271484,346.928650 635.271484,355.796967 635.271484,364.665253 
	C634.985474,364.964508 634.699402,365.263733 634.413391,365.562988 
	C629.345459,358.999542 625.278442,351.689514 620.501831,344.440063 
z"/>
<path fill="#D5D6D7" opacity="1.000000" stroke="none" 
	d="
M581.069458,348.941467 
	C583.523987,348.941437 585.501343,348.941437 587.849426,348.941437 
	C588.034424,345.142212 588.209351,341.551788 588.384216,337.961365 
	C588.895874,337.985901 589.407532,338.010468 589.919189,338.035034 
	C589.919189,347.013855 589.919189,355.992706 589.919189,364.971558 
	C589.482727,365.002930 589.046326,365.034302 588.609863,365.065643 
	C588.609863,360.674530 588.609863,356.283417 588.609863,351.565186 
	C584.079346,351.565186 580.347168,351.565186 575.748840,351.565186 
	C575.748840,355.974365 575.748840,360.531311 575.748840,365.088226 
	C575.297546,365.056122 574.846313,365.024017 574.395020,364.991943 
	C574.395020,356.003235 574.395020,347.014557 574.395020,338.025879 
	C574.822693,338.004211 575.250366,337.982544 575.678040,337.960907 
	C575.678040,341.435028 575.678040,344.909180 575.678040,348.679779 
	C577.715698,348.788300 579.153992,348.864899 581.069458,348.941467 
z"/>
<path fill="#B0B0B2" opacity="1.000000" stroke="none" 
	d="
M698.773315,350.941437 
	C698.788330,353.423706 698.784790,355.421570 698.821106,357.418732 
	C698.887024,361.045654 700.711487,362.946838 704.376526,362.988434 
	C708.285339,363.032806 710.192444,361.052734 710.200012,357.182495 
	C710.209778,352.187347 710.180054,347.191803 710.237671,342.197266 
	C710.254578,340.731812 710.510254,339.269073 711.782166,337.794617 
	C712.099854,338.299011 712.690918,338.801849 712.693787,339.308014 
	C712.730957,345.799255 712.949402,352.306610 712.568481,358.777313 
	C712.298401,363.365723 709.091309,365.205170 704.641052,365.211212 
	C700.290710,365.217133 696.767029,363.731171 696.503906,359.039917 
	C696.111938,352.049591 696.402283,345.020935 696.402283,338.008606 
	C697.081848,337.972382 697.761414,337.936157 698.440918,337.899933 
	C698.551575,342.085541 698.662231,346.271118 698.773315,350.941437 
z"/>
<path fill="#D8D8DA" opacity="1.000000" stroke="none" 
	d="
M506.378021,364.526733 
	C496.239502,365.974487 493.945221,364.027283 493.952026,354.390228 
	C493.954376,351.065674 493.798492,347.715912 494.143372,344.422546 
	C494.659912,339.489929 497.364532,337.617340 502.790833,337.711487 
	C507.455414,337.792480 509.924622,340.160950 510.112946,344.700836 
	C510.298889,349.183136 510.541382,353.721100 510.026733,358.149536 
	C509.776123,360.306091 507.856628,362.268677 506.378021,364.526733 
M508.113159,354.312866 
	C508.094391,351.331390 508.079834,348.349884 508.055725,345.368439 
	C508.026489,341.754120 506.129944,339.790802 502.593658,339.640320 
	C498.907379,339.483398 496.465729,341.212341 496.304504,345.072235 
	C496.124939,349.371399 496.088013,353.693909 496.324615,357.987762 
	C496.520508,361.543060 498.770996,363.229645 502.324982,363.147003 
	C507.687866,363.022339 508.262421,359.397003 508.113159,354.312866 
z"/>
<path fill="#D5D6D7" opacity="1.000000" stroke="none" 
	d="
M678.284241,347.470978 
	C681.511780,348.928925 684.500977,349.971405 687.316895,351.364319 
	C690.606689,352.991577 692.343750,355.512665 691.324890,359.480042 
	C690.351685,363.269806 687.993225,364.931519 684.204834,365.128845 
	C677.208069,365.493317 674.748779,363.982849 673.827881,358.517975 
	C674.400879,357.938995 674.973938,357.360046 675.546936,356.781067 
	C675.781433,357.860596 675.746521,359.108612 676.297729,359.990082 
	C678.542297,363.579926 682.124512,363.705780 685.563354,362.609436 
	C686.966431,362.162048 688.665955,360.198547 688.782593,358.803741 
	C688.917847,357.186676 687.907349,354.796143 686.598083,353.883362 
	C684.202271,352.213104 681.219177,351.387024 678.485046,350.199646 
	C675.454163,348.883392 672.845764,346.464539 674.260986,343.372772 
	C675.342468,341.010223 678.388611,339.025482 681.000366,338.053284 
	C683.019836,337.301483 685.720154,338.378815 688.939819,338.733521 
	C684.051208,340.245239 680.494751,341.219238 677.110779,342.612152 
	C676.816040,342.733490 677.656250,345.612427 678.284241,347.470978 
z"/>
<path fill="#D5D6D7" opacity="1.000000" stroke="none" 
	d="
M450.877594,340.314026 
	C448.180847,340.455200 445.650970,339.944885 443.287933,340.367523 
	C442.032623,340.592102 440.245544,342.388428 440.180634,343.557526 
	C440.101837,344.975739 441.262024,346.902802 442.478851,347.841125 
	C443.989014,349.005615 446.107117,349.380676 447.961090,350.100616 
	C453.624817,352.299835 455.831543,355.300140 454.839111,359.447937 
	C453.828522,363.671448 450.636841,365.798950 444.637146,364.952698 
	C442.058502,364.588959 439.692688,362.352417 437.388580,360.740356 
	C436.973206,360.449738 437.329437,359.056244 437.329437,358.993164 
	C440.381012,360.354614 443.354034,362.457306 446.511627,362.785828 
	C448.281494,362.970001 451.304810,360.553406 451.973083,358.672516 
	C452.445709,357.342255 450.305511,354.435394 448.627502,353.155548 
	C446.592468,351.603424 443.387604,351.521057 441.482330,349.881042 
	C439.618439,348.276672 437.451935,345.278992 437.804230,343.322479 
	C438.176636,341.254242 441.172516,338.600342 443.376740,338.211670 
	C445.671234,337.807007 449.561157,335.536621 450.877594,340.314026 
z"/>
<path fill="#D5D6D7" opacity="1.000000" stroke="none" 
	d="
M782.216919,338.211792 
	C782.355469,339.067352 782.147217,340.332611 781.853088,340.352936 
	C780.723999,340.430817 779.384705,339.653870 778.456909,340.026062 
	C776.068970,340.983978 773.858765,342.385010 771.577576,343.608948 
	C773.160889,345.384521 774.515625,347.474365 776.395691,348.842102 
	C778.078064,350.065979 780.437195,350.310425 782.323547,351.314270 
	C785.487671,352.998108 787.390869,355.376160 786.419434,359.385376 
	C785.490234,363.220551 783.132202,364.898041 779.384216,365.106750 
	C774.898132,365.356506 770.602295,365.262878 768.800415,359.994080 
	C768.697632,359.693390 768.631714,359.327209 768.708496,359.033234 
	C768.780701,358.756683 769.064819,358.535461 768.567017,359.175903 
	C772.336670,360.540710 775.656860,362.300201 779.142517,362.735809 
	C780.576538,362.915009 783.394897,360.440979 783.705994,358.814606 
	C784.017883,357.184357 782.418823,354.549713 780.880127,353.362701 
	C778.860779,351.804871 776.072998,351.251190 773.629211,350.233368 
	C770.595886,348.970032 768.439392,346.896698 769.143921,343.398743 
	C769.895386,339.667664 772.574646,337.876801 776.360779,337.860138 
	C778.183777,337.852142 780.007385,337.982178 782.216919,338.211792 
z"/>
<path fill="#E8E8EB" opacity="1.000000" stroke="none" 
	d="
M656.502319,362.445190 
	C651.731140,363.800964 647.216064,364.848328 642.215027,366.008423 
	C642.215027,355.979675 642.215027,347.247253 642.215027,338.092957 
	C644.997314,338.092957 648.018433,337.390350 650.456482,338.282043 
	C653.125671,339.258209 657.064453,341.513214 657.282715,343.550323 
	C657.937134,349.656952 657.046204,355.929199 656.502319,362.445190 
M644.026001,341.790680 
	C644.026001,348.747681 644.026001,355.704681 644.026001,362.614197 
	C655.037537,363.659363 655.972656,362.824188 655.983765,352.350525 
	C655.985046,351.184296 655.990417,350.018036 655.982422,348.851868 
	C655.927673,340.837921 652.241882,338.365173 644.026001,341.790680 
z"/>
<path fill="#D8D8DA" opacity="1.000000" stroke="none" 
	d="
M793.234253,343.276123 
	C794.451477,345.327393 795.494385,347.405548 797.172058,348.565887 
	C799.021301,349.844849 801.480225,350.215820 803.625671,351.098785 
	C807.447571,352.671661 808.819336,355.709717 807.975769,359.569794 
	C807.170288,363.255585 804.641296,364.988678 800.798523,365.143158 
	C793.807068,365.424316 791.324341,363.881195 790.351135,356.985260 
	C791.829163,358.774323 792.549377,359.644989 793.268494,360.516571 
	C795.925964,363.737854 799.377686,363.792297 802.786072,362.395569 
	C806.768982,360.763397 807.060059,356.003082 803.304138,353.768402 
	C800.762939,352.256378 797.827148,351.419769 795.111084,350.185913 
	C792.117065,348.825745 789.639648,346.389954 791.067993,343.236603 
	C792.092041,340.975739 794.905884,338.952972 797.366028,338.085968 
	C799.561096,337.312347 802.366028,338.269257 805.662598,338.520508 
	C800.726929,340.273956 797.033386,341.586121 793.234253,343.276123 
z"/>
<path fill="#D8D8DA" opacity="1.000000" stroke="none" 
	d="
M610.924377,364.286316 
	C610.281982,362.496765 609.562378,361.116882 609.364441,359.665863 
	C608.862549,355.986115 606.661621,355.516479 603.403931,355.491302 
	C600.139099,355.466064 598.594604,356.471771 597.969238,359.677917 
	C597.582458,361.660736 596.433228,363.494812 595.626343,365.395660 
	C595.082886,365.170868 594.539429,364.946075 593.996033,364.721313 
	C596.917358,355.709290 599.838684,346.697266 602.760010,337.685242 
	C603.306946,337.697937 603.853882,337.710663 604.400818,337.723358 
	C605.536011,340.871338 606.732422,343.998901 607.792358,347.172028 
	C609.473389,352.204529 611.132141,357.247711 612.596313,362.345001 
	C612.762939,362.925232 611.620300,363.881592 610.924377,364.286316 
M603.980957,343.068268 
	C603.859619,342.954620 603.752808,342.813141 603.610779,342.739227 
	C603.541504,342.703217 603.332031,342.768860 603.312073,342.829681 
	C602.196289,346.243073 601.093750,349.660828 599.978027,353.114960 
	C602.629944,353.114960 604.810181,353.114960 607.408630,353.114960 
	C606.260925,349.626770 605.285950,346.663574 603.980957,343.068268 
z"/>
<path fill="#E8E8EB" opacity="1.000000" stroke="none" 
	d="
M540.981567,351.003082 
	C540.981506,346.543610 540.981506,342.581085 540.981506,338.072113 
	C546.087219,338.308472 551.346130,336.446075 555.270020,341.225739 
	C557.432373,343.859711 557.879333,358.445251 556.067261,361.499390 
	C554.086243,364.838257 551.099121,365.503754 540.981567,364.707397 
	C540.981567,360.343811 540.981567,355.921936 540.981567,351.003082 
M543.020996,341.791046 
	C543.020996,348.742371 543.020996,355.693726 543.020996,362.595978 
	C553.948792,363.687286 554.979309,362.768402 554.978333,352.339661 
	C554.978210,351.174744 554.982483,350.009705 554.970520,348.844879 
	C554.887634,340.785370 551.263000,338.353271 543.020996,341.791046 
z"/>
<path fill="#C6C6C8" opacity="1.000000" stroke="none" 
	d="
M482.543945,365.079132 
	C481.133789,364.459167 479.946960,364.066467 479.192261,363.266205 
	C476.202148,360.095673 476.048523,343.624481 478.870728,340.199585 
	C481.396606,337.134277 485.704315,336.822021 489.822021,339.407074 
	C489.644379,339.619568 489.459961,340.019989 489.287018,340.015076 
	C480.146027,339.755707 479.704559,340.179016 479.685730,349.331726 
	C479.683685,350.330872 479.686615,351.329987 479.689087,352.329132 
	C479.716522,363.495911 479.848206,363.620728 490.732391,362.807861 
	C490.783875,363.304840 490.835327,363.801819 490.886810,364.298798 
	C488.246460,364.572235 485.606140,364.845673 482.543945,365.079132 
z"/>
<path fill="#DDDDE1" opacity="1.000000" stroke="none" 
	d="
M737.409546,339.076111 
	C740.792847,338.539185 743.830627,338.227081 747.608765,337.838928 
	C746.833069,339.428436 746.721375,339.870178 746.601562,339.872345 
	C737.044678,340.047607 737.044556,340.045013 737.044067,349.685394 
	C737.043945,351.346039 737.043274,353.006653 737.045532,354.667297 
	C737.056641,362.871826 738.065186,363.744598 746.418762,362.821686 
	C747.001953,362.757263 747.598389,362.813263 748.188660,362.813263 
	C748.227417,363.399628 748.266174,363.985992 748.304932,364.572357 
	C745.171936,364.653259 741.765259,365.513611 739.001526,364.543091 
	C737.135193,363.887726 735.295471,360.771027 734.993530,358.545135 
	C734.374146,353.979126 734.587219,349.257996 734.894287,344.629700 
	C735.014709,342.813477 736.306030,341.074921 737.409546,339.076111 
z"/>
<path fill="#EFEFF1" opacity="1.000000" stroke="none" 
	d="
M463.238312,351.228424 
	C462.413177,354.947479 462.046143,358.647858 461.611908,363.026184 
	C465.704865,363.026184 469.224945,363.026184 472.745026,363.026184 
	C472.769379,363.462280 472.793732,363.898376 472.818085,364.334473 
	C468.780823,364.334473 464.743561,364.334473 460.341309,364.334473 
	C460.341309,356.070618 460.341309,347.225708 460.341309,338.470062 
	C464.528809,338.470062 468.628845,338.470062 472.728912,338.470062 
	C472.752502,338.875946 472.776093,339.281860 472.799683,339.687744 
	C469.354401,339.859955 465.909119,340.032196 462.245911,340.215302 
	C462.245911,343.049957 462.245911,345.782349 462.245911,348.785736 
	C464.562927,348.928406 466.812103,349.066864 469.061249,349.205353 
	C469.116150,349.625366 469.171051,350.045410 469.225922,350.465424 
	C467.382782,350.713531 465.539612,350.961670 463.238312,351.228424 
z"/>
<path fill="#F0F1F5" opacity="1.000000" stroke="none" 
	d="
M751.999023,354.972382 
	C752.011230,349.324860 752.021912,344.171631 752.042480,339.018433 
	C752.043030,338.872528 752.147949,338.727051 752.253906,338.452789 
	C756.448303,338.452789 760.683411,338.452789 764.918518,338.452789 
	C764.941345,338.864594 764.964172,339.276398 764.987000,339.688232 
	C761.558594,339.859039 758.130188,340.029877 754.438965,340.213806 
	C754.438965,343.062653 754.438965,345.784454 754.438965,348.772827 
	C756.747620,348.943085 758.943848,349.105072 761.140137,349.267059 
	C761.187317,349.674377 761.234558,350.081665 761.281738,350.488983 
	C759.085327,350.850189 756.888977,351.211426 754.432983,351.615356 
	C754.432983,355.170349 754.432983,358.754425 754.432983,362.754578 
	C757.844849,362.926910 761.317810,363.102356 764.790710,363.277771 
	C764.776917,363.663757 764.763123,364.049713 764.749268,364.435699 
	C760.690796,364.435699 756.632324,364.435699 751.998962,364.435699 
	C751.998962,361.671509 751.998962,358.569092 751.999023,354.972382 
z"/>
<path fill="#DDDEE0" opacity="1.000000" stroke="none" 
	d="
M717.956543,350.066589 
	C717.956543,348.255981 717.929626,346.922455 717.960938,345.590271 
	C718.129822,338.401245 723.698303,335.594879 730.364075,339.371582 
	C730.187561,339.573334 730.014709,339.941010 729.846313,339.938934 
	C720.515991,339.826080 720.046021,340.290497 720.042908,349.715485 
	C720.042847,349.882080 720.042969,350.048706 720.042969,350.215302 
	C720.042419,362.568390 720.042419,362.568390 731.509277,363.123810 
	C731.533081,363.614594 731.556946,364.105377 731.580750,364.596161 
	C728.267151,364.596161 724.609863,365.446198 721.761780,364.294769 
	C719.889404,363.537750 718.772949,360.007202 718.081360,357.507446 
	C717.481873,355.340729 717.956543,352.876801 717.956543,350.066589 
z"/>
<path fill="#F0F1F5" opacity="1.000000" stroke="none" 
	d="
M687.318604,557.130493 
	C687.025269,557.343384 686.710754,557.599182 686.396179,557.854919 
	C686.515625,557.671509 686.635132,557.488098 687.065186,557.226318 
	C687.375854,557.147888 687.297302,557.173401 687.318604,557.130493 
z"/>
<path fill="#F0F1F5" opacity="1.000000" stroke="none" 
	d="
M821.636597,572.677612 
	C821.529541,572.914429 821.381531,573.161621 821.233459,573.408752 
	C821.283325,573.295471 821.333191,573.182251 821.522766,572.854370 
	C821.662537,572.639832 821.595642,572.687927 821.636597,572.677612 
z"/>
<path fill="#161719" opacity="1.000000" stroke="none" 
	d="
M367.047729,431.615692 
	C365.514526,426.233246 364.045654,421.237610 362.280731,415.235077 
	C370.085785,421.732941 370.098785,431.912811 375.946228,439.033417 
	C370.973389,438.102234 369.600494,436.954224 367.047729,431.615692 
z"/>
<path fill="#212225" opacity="1.000000" stroke="none" 
	d="
M356.964233,418.432373 
	C358.027435,422.066223 359.005890,425.344055 359.984344,428.621857 
	C359.803314,428.733307 359.622284,428.844757 359.441254,428.956207 
	C357.295349,426.360565 355.019653,423.856262 353.086487,421.110809 
	C352.542511,420.338196 353.003540,418.858002 353.003571,417.702393 
	C354.295532,417.827026 355.587494,417.951691 356.964233,418.432373 
z"/>
<path fill="#070708" opacity="1.000000" stroke="none" 
	d="
M508.111816,354.775940 
	C508.262421,359.397003 507.687866,363.022339 502.324982,363.147003 
	C498.770996,363.229645 496.520508,361.543060 496.324615,357.987762 
	C496.088013,353.693909 496.124939,349.371399 496.304504,345.072235 
	C496.465729,341.212341 498.907379,339.483398 502.593658,339.640320 
	C506.129944,339.790802 508.026489,341.754120 508.055725,345.368439 
	C508.079834,348.349884 508.094391,351.331390 508.111816,354.775940 
z"/>
<path fill="#030304" opacity="1.000000" stroke="none" 
	d="
M644.045044,341.321930 
	C652.241882,338.365173 655.927673,340.837921 655.982422,348.851868 
	C655.990417,350.018036 655.985046,351.184296 655.983765,352.350525 
	C655.972656,362.824188 655.037537,363.659363 644.026001,362.614197 
	C644.026001,355.704681 644.026001,348.747681 644.045044,341.321930 
z"/>
<path fill="#212225" opacity="1.000000" stroke="none" 
	d="
M604.145996,343.384308 
	C605.285950,346.663574 606.260925,349.626770 607.408630,353.114960 
	C604.810181,353.114960 602.629944,353.114960 599.978027,353.114960 
	C601.093750,349.660828 602.196289,346.243073 603.312073,342.829681 
	C603.332031,342.768860 603.541504,342.703217 603.610779,342.739227 
	C603.752808,342.813141 603.859619,342.954620 604.145996,343.384308 
z"/>
<path fill="#030304" opacity="1.000000" stroke="none" 
	d="
M543.043823,341.322449 
	C551.263000,338.353271 554.887634,340.785370 554.970520,348.844879 
	C554.982483,350.009705 554.978210,351.174744 554.978333,352.339661 
	C554.979309,362.768402 553.948792,363.687286 543.020996,362.595978 
	C543.020996,355.693726 543.020996,348.742371 543.043823,341.322449 
z"/>
</svg>